<svg xmlns="http://www.w3.org/2000/svg" xmlns:xlink="http://www.w3.org/1999/xlink" width="500" zoomAndPan="magnify" viewBox="0 0 375 374.999991" height="500" preserveAspectRatio="xMidYMid meet" version="1.0"><defs><clipPath id="94bfcb2875"><path d="M 196 159 L 276 159 L 276 227 L 196 227 Z M 196 159 " clip-rule="nonzero"/></clipPath><clipPath id="7cb1ae19a4"><path d="M 233.464844 135.90625 L 318.761719 176.585938 L 273.882812 270.679688 L 188.585938 230 Z M 233.464844 135.90625 " clip-rule="nonzero"/></clipPath><clipPath id="eeea32daf1"><path d="M 233.464844 135.90625 L 318.761719 176.585938 L 273.882812 270.679688 L 188.585938 230 Z M 233.464844 135.90625 " clip-rule="nonzero"/></clipPath><clipPath id="fce8f871e4"><path d="M 194 172 L 292 172 L 292 233 L 194 233 Z M 194 172 " clip-rule="nonzero"/></clipPath><clipPath id="766ab57dbb"><path d="M 233.464844 135.90625 L 318.761719 176.585938 L 273.882812 270.679688 L 188.585938 230 Z M 233.464844 135.90625 " clip-rule="nonzero"/></clipPath><clipPath id="6d4ce20c59"><path d="M 233.464844 135.90625 L 318.761719 176.585938 L 273.882812 270.679688 L 188.585938 230 Z M 233.464844 135.90625 " clip-rule="nonzero"/></clipPath><clipPath id="93f08fe4b8"><path d="M 199 146 L 260 146 L 260 219 L 199 219 Z M 199 146 " clip-rule="nonzero"/></clipPath><clipPath id="33c3bcecf7"><path d="M 233.464844 135.90625 L 318.761719 176.585938 L 273.882812 270.679688 L 188.585938 230 Z M 233.464844 135.90625 " clip-rule="nonzero"/></clipPath><clipPath id="0baafbdb29"><path d="M 233.464844 135.90625 L 318.761719 176.585938 L 273.882812 270.679688 L 188.585938 230 Z M 233.464844 135.90625 " clip-rule="nonzero"/></clipPath><clipPath id="dc1509edaf"><path d="M 98 158 L 179 158 L 179 227 L 98 227 Z M 98 158 " clip-rule="nonzero"/></clipPath><clipPath id="89301474b0"><path d="M 56.273438 176.28125 L 141.742188 135.972656 L 186.210938 230.261719 L 100.742188 270.574219 Z M 56.273438 176.28125 " clip-rule="nonzero"/></clipPath><clipPath id="599e592c11"><path d="M 141.699219 135.992188 L 56.230469 176.304688 L 100.699219 270.59375 L 186.167969 230.28125 Z M 141.699219 135.992188 " clip-rule="nonzero"/></clipPath><clipPath id="658269aac9"><path d="M 82 172 L 181 172 L 181 233 L 82 233 Z M 82 172 " clip-rule="nonzero"/></clipPath><clipPath id="c8c1c3ac4a"><path d="M 56.273438 176.28125 L 141.742188 135.972656 L 186.210938 230.261719 L 100.742188 270.574219 Z M 56.273438 176.28125 " clip-rule="nonzero"/></clipPath><clipPath id="8fe7186330"><path d="M 141.699219 135.992188 L 56.230469 176.304688 L 100.699219 270.59375 L 186.167969 230.28125 Z M 141.699219 135.992188 " clip-rule="nonzero"/></clipPath><clipPath id="42792c1faa"><path d="M 114 146 L 176 146 L 176 219 L 114 219 Z M 114 146 " clip-rule="nonzero"/></clipPath><clipPath id="5ffaaa11b7"><path d="M 56.273438 176.28125 L 141.742188 135.972656 L 186.210938 230.261719 L 100.742188 270.574219 Z M 56.273438 176.28125 " clip-rule="nonzero"/></clipPath><clipPath id="7e5d41eaed"><path d="M 141.699219 135.992188 L 56.230469 176.304688 L 100.699219 270.59375 L 186.167969 230.28125 Z M 141.699219 135.992188 " clip-rule="nonzero"/></clipPath><clipPath id="fda0520df9"><path d="M 142.328125 104.609375 L 214 104.609375 L 214 128 L 142.328125 128 Z M 142.328125 104.609375 " clip-rule="nonzero"/></clipPath><clipPath id="9b60696cd1"><path d="M 157 126 L 216.578125 126 L 216.578125 212.609375 L 157 212.609375 Z M 157 126 " clip-rule="nonzero"/></clipPath></defs><rect x="-37.5" width="450" fill="#ffffff" y="-37.499999" height="449.999989" fill-opacity="1"/><rect x="-37.5" width="450" fill="#ffffff" y="-37.499999" height="449.999989" fill-opacity="1"/><g clip-path="url(#94bfcb2875)"><g clip-path="url(#7cb1ae19a4)"><g clip-path="url(#eeea32daf1)"><path fill="#ff914d" d="M 275.863281 218.964844 L 270.722656 159.0625 C 270.722656 159.0625 264.710938 159.789062 257.59375 162 L 258.109375 168 C 260.027344 167.90625 262.054688 167.949219 264.179688 168.179688 L 268.609375 211.585938 C 268.609375 211.585938 219.402344 205.917969 196.667969 226.074219 C 196.667969 226.074219 225.078125 209.023438 275.863281 218.964844 " fill-opacity="1" fill-rule="nonzero"/></g></g></g><g clip-path="url(#fce8f871e4)"><g clip-path="url(#766ab57dbb)"><g clip-path="url(#6d4ce20c59)"><path fill="#ffbd59" d="M 286.75 172.859375 C 286.75 172.859375 280.738281 173.582031 273.625 175.796875 L 274.136719 181.792969 C 276.054688 181.699219 278.082031 181.746094 280.210938 181.972656 L 284.636719 225.378906 C 284.636719 225.378906 226.332031 212.265625 194.28125 232.382812 C 194.28125 232.382812 229.617188 220.003906 291.890625 232.761719 L 286.75 172.859375 " fill-opacity="1" fill-rule="nonzero"/></g></g></g><g clip-path="url(#93f08fe4b8)"><g clip-path="url(#33c3bcecf7)"><g clip-path="url(#0baafbdb29)"><path fill="#ffde59" d="M 199.484375 218.640625 C 199.484375 218.640625 223.839844 199.269531 259.917969 205.976562 L 254.777344 146.070312 C 254.777344 146.070312 227.65625 149.328125 220.464844 163.21875 C 220.464844 163.21875 231.15625 153.355469 248.234375 155.1875 L 252.664062 198.59375 C 252.664062 198.59375 217.777344 197.363281 199.484375 218.640625 " fill-opacity="1" fill-rule="nonzero"/></g></g></g><g clip-path="url(#dc1509edaf)"><g clip-path="url(#89301474b0)"><g clip-path="url(#599e592c11)"><path fill="#ff914d" d="M 98.945312 218.871094 L 104.34375 158.992188 C 104.34375 158.992188 110.355469 159.738281 117.457031 161.984375 L 116.917969 167.980469 C 115 167.878906 112.972656 167.914062 110.847656 168.132812 L 106.226562 211.519531 C 106.226562 211.519531 155.460938 206.066406 178.105469 226.324219 C 178.105469 226.324219 149.773438 209.148438 98.945312 218.871094 " fill-opacity="1" fill-rule="nonzero"/></g></g></g><g clip-path="url(#658269aac9)"><g clip-path="url(#c8c1c3ac4a)"><g clip-path="url(#8fe7186330)"><path fill="#ffbd59" d="M 88.257812 172.714844 C 88.257812 172.714844 94.265625 173.464844 101.371094 175.710938 L 100.832031 181.707031 C 98.914062 181.605469 96.886719 181.640625 94.757812 181.859375 L 90.140625 225.246094 C 90.140625 225.246094 148.5 212.382812 180.46875 232.640625 C 180.46875 232.640625 145.183594 220.109375 82.855469 232.597656 L 88.257812 172.714844 " fill-opacity="1" fill-rule="nonzero"/></g></g></g><g clip-path="url(#42792c1faa)"><g clip-path="url(#5ffaaa11b7)"><g clip-path="url(#7e5d41eaed)"><path fill="#ffde59" d="M 175.324219 218.875 C 175.324219 218.875 151.050781 199.402344 114.945312 205.949219 L 120.347656 146.066406 C 120.347656 146.066406 147.453125 149.441406 154.582031 163.363281 C 154.582031 163.363281 143.9375 153.453125 126.847656 155.210938 L 122.230469 198.597656 C 122.230469 198.597656 157.121094 197.519531 175.324219 218.875 " fill-opacity="1" fill-rule="nonzero"/></g></g></g><g clip-path="url(#fda0520df9)"><path fill="#ff914d" d="M 213.503906 116.730469 C 213.429688 117.910156 212.605469 118.910156 211.492188 119.3125 L 188.195312 127.753906 C 187.875 127.867188 187.535156 127.925781 187.199219 127.925781 C 186.863281 127.925781 186.523438 127.867188 186.203125 127.753906 L 164.523438 119.902344 C 163.839844 119.652344 163.503906 118.863281 163.824219 118.191406 C 164.105469 117.601562 164.8125 117.351562 165.425781 117.574219 L 187.050781 125.40625 C 187.148438 125.441406 187.25 125.441406 187.34375 125.40625 L 210.730469 116.933594 C 210.960938 116.851562 211.011719 116.671875 211.011719 116.535156 C 211.015625 116.421875 210.980469 116.222656 210.738281 116.132812 L 187.351562 107.199219 C 187.253906 107.164062 187.144531 107.164062 187.046875 107.199219 L 170.875 113.375 C 171.449219 113.582031 172.039062 113.804688 172.640625 114.046875 C 181.222656 117.5 187.101562 114.597656 189.214844 113.203125 C 189.421875 113.066406 189.660156 113 189.894531 113 C 190.242188 113 190.582031 113.144531 190.828125 113.417969 C 191.332031 113.988281 191.210938 114.871094 190.574219 115.289062 C 188 116.976562 181.289062 120.21875 171.710938 116.363281 C 158.292969 110.960938 153.019531 115.59375 151.34375 117.902344 L 152.878906 118.832031 L 149.109375 124.90625 C 148.15625 126.441406 146.160156 126.957031 144.582031 126.070312 C 142.914062 125.128906 142.359375 122.992188 143.359375 121.363281 L 147.066406 115.3125 L 149.234375 116.625 C 151.039062 114.128906 156.003906 109.542969 166.957031 112.203125 L 186.15625 104.871094 C 186.828125 104.613281 187.570312 104.613281 188.242188 104.871094 L 211.628906 113.800781 C 212.835938 114.261719 213.589844 115.421875 213.503906 116.730469 Z M 213.503906 116.730469 " fill-opacity="1" fill-rule="nonzero"/></g><g clip-path="url(#9b60696cd1)"><path fill="#ff914d" d="M 198.40625 126.914062 L 188.195312 130.613281 C 187.875 130.730469 187.535156 130.789062 187.199219 130.789062 C 186.863281 130.789062 186.523438 130.730469 186.203125 130.613281 L 175.632812 126.785156 C 170.871094 143.253906 157.832031 156.554688 157.832031 156.554688 C 161.59375 160.96875 165.28125 166.609375 168.738281 172.886719 L 179.207031 195.472656 C 181.160156 200.484375 184.289062 208.167969 185.734375 212.871094 L 185.410156 188.910156 C 185.570312 185.359375 185.578125 167.46875 185.488281 159.621094 C 184.347656 159.039062 183.566406 157.859375 183.566406 156.492188 C 183.566406 154.578125 185.097656 153.027344 187 152.988281 C 188.90625 153.027344 190.4375 154.578125 190.4375 156.492188 C 190.4375 157.859375 189.652344 159.039062 188.511719 159.621094 C 188.421875 167.46875 188.429688 185.359375 188.589844 188.910156 L 188.265625 212.871094 C 189.714844 208.167969 192.839844 200.480469 194.792969 195.472656 L 205.265625 172.886719 C 208.71875 166.609375 212.410156 160.96875 216.171875 156.554688 C 216.171875 156.554688 203.199219 143.324219 198.40625 126.914062 Z M 198.40625 126.914062 " fill-opacity="1" fill-rule="nonzero"/></g></svg>